HIERARCHY
ROOT Hips
{
 OFFSET 0.000000 0.000000 0.000000
 CHANNELS 6 Xposition Yposition Zposition Yrotation Xrotation Zrotation
 JOINT Chest
 {
  OFFSET 0.000000 9.585900 0.002600
  CHANNELS 3 Yrotation Xrotation Zrotation
  JOINT Chest2
  {
   OFFSET 0.000000 9.601200 -0.005300
   CHANNELS 3 Yrotation Xrotation Zrotation
   JOINT Chest3
   {
    OFFSET 0.000000 9.561800 0.000000
    CHANNELS 3 Yrotation Xrotation Zrotation
    JOINT Chest4
    {
     OFFSET 0.000000 9.552100 0.000000
     CHANNELS 3 Yrotation Xrotation Zrotation
     JOINT Neck
     {
      OFFSET 0.000000 14.453000 0.000000
      CHANNELS 3 Yrotation Xrotation Zrotation
      JOINT Head
      {
       OFFSET 0.000000 8.936500 -0.011300
       CHANNELS 3 Yrotation Xrotation Zrotation
       End Site
       {
        OFFSET 0.000000 17.073600 -0.006000
       }
      }
     }
     JOINT RightCollar
     {
      OFFSET -2.921100 9.558500 0.000000
      CHANNELS 3 Yrotation Xrotation Zrotation
      JOINT RightShoulder
      {
       OFFSET -13.519700 0.000000 0.000000
       CHANNELS 3 Yrotation Xrotation Zrotation
       JOINT RightElbow
       {
        OFFSET 0.000000 -29.696600 0.000000
        CHANNELS 3 Yrotation Xrotation Zrotation
        JOINT RightWrist
        {
         OFFSET 0.000000 -24.004700 0.000000
         CHANNELS 3 Yrotation Xrotation Zrotation
         End Site
         {
          OFFSET 0.000000 -17.728500 0.000000
         }
        }
       }
      }
     }
     JOINT LeftCollar
     {
      OFFSET 2.921100 9.558500 0.000000
      CHANNELS 3 Yrotation Xrotation Zrotation
      JOINT LeftShoulder
      {
       OFFSET 13.519700 0.000000 0.000000
       CHANNELS 3 Yrotation Xrotation Zrotation
       JOINT LeftElbow
       {
        OFFSET 0.000000 -29.696600 0.000000
        CHANNELS 3 Yrotation Xrotation Zrotation
        JOINT LeftWrist
        {
         OFFSET 0.000000 -24.004700 0.000000
         CHANNELS 3 Yrotation Xrotation Zrotation
         End Site
         {
          OFFSET 0.000000 -17.728500 0.000000
         }
        }
       }
      }
     }
    }
   }
  }
 }
 JOINT RightHip
 {
  OFFSET -7.771700 -0.012900 -0.001300
  CHANNELS 3 Yrotation Xrotation Zrotation
  JOINT RightKnee
  {
   OFFSET 0.000000 -40.869800 0.001200
   CHANNELS 3 Yrotation Xrotation Zrotation
   JOINT RightAnkle
   {
    OFFSET 0.000000 -39.717900 0.002100
    CHANNELS 3 Yrotation Xrotation Zrotation
    JOINT RightToe
    {
     OFFSET 0.000000 -4.965400 11.033500
     CHANNELS 3 Yrotation Xrotation Zrotation
     End Site
     {
      OFFSET 0.000000 -1.423100 5.872300
     }
    }
   }
  }
 }
 JOINT LeftHip
 {
  OFFSET 7.771700 -0.012900 -0.001300
  CHANNELS 3 Yrotation Xrotation Zrotation
  JOINT LeftKnee
  {
   OFFSET 0.000000 -40.869800 0.001200
   CHANNELS 3 Yrotation Xrotation Zrotation
   JOINT LeftAnkle
   {
    OFFSET 0.000000 -39.717900 0.002100
    CHANNELS 3 Yrotation Xrotation Zrotation
    JOINT LeftToe
    {
     OFFSET 0.000000 -4.965400 11.033500
     CHANNELS 3 Yrotation Xrotation Zrotation
     End Site
     {
      OFFSET 0.000000 -1.423100 5.872300
     }
    }
   }
  }
 }
}
MOTION
Frames: 5
Frame Time: 0.008333
0.000000 85.388000 0.000000 0.000000 -5.767877 0.000000 0.000000 11.653817 0.000000 0.000000 -5.885947 0.000000 0.000000 -0.000000 0.000000 0.000000 -0.000000 0.000000 0.000000 12.528835 0.000000 0.000000 0.711642 0.000000 0.000000 -0.000000 0.000000 0.000000 0.000000 -90.000000 0.000000 -2.309062 0.000000 0.000000 2.309062 0.000000 0.000000 -0.000000 0.000000 0.000000 -0.000000 90.000000 0.000000 -2.309062 0.000000 0.000000 2.309062 0.000000 0.000000 8.520406 0.000000 0.000000 1.905762 0.000000 -0.000000 -4.658285 0.000000 0.000000 -0.000000 0.000000 0.000000 8.520406 0.000000 0.000000 1.905762 0.000000 -0.000000 -4.658285 0.000000 0.000000 -0.000000 0.000000
-225.515085 57.467184 -75.995720 163.314959 -7.689545 1.067773 3.424422 6.724008 1.580877 0.071075 0.296831 0.026352 0.287065 0.539818 0.053993 2.741193 6.444130 0.765479 -0.892140 16.237707 -1.020051 -1.412376 -5.667733 -1.553693 2.407544 10.305043 1.771859 -7.967497 -9.464811 -6.750443 -110.761445 -87.759000 122.006943 -3.617606 1.473953 -29.201194 -5.868846 9.287101 -2.757024 16.482185 -6.192910 2.273722 73.728461 -76.744133 -99.590332 -1.608205 7.388323 12.326056 -9.598469 -64.857566 0.892310 -38.127618 72.399883 -40.776875 -5.204254 -7.550697 1.685022 -0.376597 0.860849 -0.203630 -5.743987 -66.557740 15.242506 43.589009 63.637022 37.827006 -16.904526 -8.566840 2.342231 -0.128974 -1.227460 -0.140329
-225.511816 57.466749 -75.999952 163.277868 -7.694168 1.074172 3.357538 6.720575 1.562375 0.114864 0.302438 0.027405 0.240487 0.533049 0.052146 2.812150 6.453384 0.766983 -0.930371 16.229574 -1.023375 -1.326411 -5.665315 -1.574968 2.358067 10.298571 1.776880 -7.979097 -9.481468 -6.742697 -111.170769 -87.763815 122.450905 -3.619077 1.462608 -29.205814 -5.916279 9.307971 -2.756211 16.567572 -6.178250 2.210456 73.858404 -76.794160 -99.734266 -1.611665 7.312908 12.274353 -9.591562 -64.851977 0.902993 -38.114468 72.403166 -40.739982 -5.223654 -7.560693 1.642141 -0.343491 0.868563 -0.180610 -5.804554 -66.540479 15.310366 43.616816 63.643143 37.836134 -16.872280 -8.532935 2.343980 -0.165401 -1.232003 -0.144916
-225.503649 57.466147 -76.002923 163.256879 -7.698368 1.051776 3.307276 6.718777 1.573569 0.143329 0.304837 0.029612 0.210244 0.529652 0.048905 2.801058 6.452301 0.757756 -0.880554 16.245321 -1.021241 -1.251366 -5.648234 -1.589378 2.386391 10.301162 1.786712 -8.007855 -9.499470 -6.730587 -112.042487 -87.745895 123.304745 -3.618229 1.481463 -29.171401 -5.862922 9.325308 -2.752041 16.605525 -6.152669 2.138217 74.471517 -76.818955 -100.351190 -1.608008 7.333107 12.273132 -9.705861 -64.840237 1.000296 -38.121169 72.407456 -40.697221 -5.242703 -7.584496 1.561344 -0.277223 0.876505 -0.153168 -5.901930 -66.526066 15.416813 43.645404 63.640843 37.848351 -16.838083 -8.490998 2.351143 -0.196090 -1.256938 -0.154886
-225.497869 57.465734 -76.007509 163.194799 -7.707055 1.055435 3.309343 6.724023 1.567316 0.187381 0.309076 0.033015 0.165024 0.524591 0.044723 2.808942 6.452754 0.753188 -0.855827 16.260851 -1.020257 -1.210840 -5.640984 -1.596809 2.421044 10.305501 1.791848 -8.050692 -9.514420 -6.717188 -112.496447 -87.731234 123.743202 -3.623037 1.482964 -29.162648 -5.845012 9.338567 -2.749996 16.649544 -6.123937 2.044452 74.942269 -76.842199 -100.799072 -1.603888 7.314489 12.281118 -9.733055 -64.827476 1.052330 -38.084657 72.415089 -40.647185 -5.227937 -7.604620 1.533103 -0.266744 0.889642 -0.152063 -5.891511 -66.509836 15.458223 43.637490 63.653369 37.838052 -16.808296 -8.436565 2.344216 -0.201141 -1.296753 -0.151625
